<svg width="20" height="26" viewBox="0 0 20 26" fill="none" xmlns="http://www.w3.org/2000/svg">
<circle cx="10" cy="13" r="10" fill="#005248"/>
<path d="M14.4062 7.625C14.5 7.66667 14.5443 7.72917 14.5391 7.8125C14.5391 7.89583 14.5052 7.99219 14.4375 8.10156C14.3698 8.21094 14.2734 8.32812 14.1484 8.45312C14.0286 8.57292 13.8958 8.69531 13.75 8.82031C13.6302 8.91927 13.4922 9.02604 13.3359 9.14062C13.2005 9.24479 13.0339 9.36458 12.8359 9.5C12.6432 9.63021 12.4219 9.77344 12.1719 9.92969C12.3125 9.79948 12.4115 9.68229 12.4688 9.57812C12.526 9.47396 12.5547 9.3776 12.5547 9.28906C12.5547 9.16927 12.5078 9.0651 12.4141 8.97656C12.3203 8.88802 12.2005 8.8151 12.0547 8.75781C11.9089 8.69531 11.7448 8.64583 11.5625 8.60938C11.3854 8.57292 11.2109 8.54688 11.0391 8.53125C10.8724 8.51042 10.7188 8.4974 10.5781 8.49219C10.4375 8.48698 10.3333 8.48438 10.2656 8.48438C9.98958 8.48438 9.71094 8.51302 9.42969 8.57031C9.14844 8.6224 8.89583 8.71354 8.67188 8.84375C8.44792 8.96875 8.26562 9.13802 8.125 9.35156C7.98438 9.5599 7.91406 9.82031 7.91406 10.1328C7.91406 10.487 8.01302 10.7917 8.21094 11.0469C8.40885 11.2969 8.66927 11.5156 8.99219 11.7031C9.3151 11.8906 9.67969 12.0547 10.0859 12.1953C10.4974 12.3359 10.9115 12.4714 11.3281 12.6016C11.75 12.7266 12.1562 12.8542 12.5469 12.9844C12.9427 13.1146 13.2865 13.263 13.5781 13.4297C13.9635 13.6589 14.2396 13.9271 14.4062 14.2344C14.5781 14.5365 14.6641 14.8568 14.6641 15.1953C14.6641 15.6328 14.5469 16.0495 14.3125 16.4453C14.0833 16.8359 13.7812 17.2005 13.4062 17.5391C13.0365 17.8776 12.6146 18.1823 12.1406 18.4531C11.6667 18.724 11.1875 18.9557 10.7031 19.1484C10.2188 19.3411 9.75 19.4896 9.29688 19.5938C8.84375 19.6979 8.45052 19.75 8.11719 19.75C7.6849 19.75 7.30469 19.7057 6.97656 19.6172C6.64844 19.5339 6.375 19.4323 6.15625 19.3125C5.9375 19.1927 5.77344 19.0703 5.66406 18.9453C5.5599 18.8151 5.51562 18.7109 5.53125 18.6328C5.54167 18.5391 5.58854 18.4375 5.67188 18.3281C5.76042 18.2135 5.89062 18.0911 6.0625 17.9609C6.23438 17.8307 6.45052 17.6875 6.71094 17.5312C6.97135 17.375 7.28646 17.2031 7.65625 17.0156C7.50521 17.1615 7.4375 17.2969 7.45312 17.4219C7.46875 17.5469 7.54167 17.6589 7.67188 17.7578C7.80729 17.8568 7.98177 17.9453 8.19531 18.0234C8.41406 18.0964 8.64323 18.1589 8.88281 18.2109C9.1276 18.2578 9.3724 18.2943 9.61719 18.3203C9.86198 18.3464 10.0781 18.3594 10.2656 18.3594C10.5833 18.3594 10.8984 18.3255 11.2109 18.2578C11.5286 18.1901 11.8125 18.0833 12.0625 17.9375C12.3177 17.7865 12.5234 17.5911 12.6797 17.3516C12.8411 17.1068 12.9219 16.8125 12.9219 16.4688C12.9219 16.2656 12.8802 16.0573 12.7969 15.8438C12.7135 15.625 12.5703 15.4141 12.3672 15.2109C12.1693 15.0078 11.901 14.8177 11.5625 14.6406C11.224 14.4583 10.8021 14.3021 10.2969 14.1719C9.52604 13.9688 8.875 13.7604 8.34375 13.5469C7.81771 13.3281 7.39323 13.0964 7.07031 12.8516C6.7526 12.6016 6.53125 12.3307 6.40625 12.0391C6.28125 11.7422 6.23438 11.4115 6.26562 11.0469C6.29688 10.625 6.42448 10.2422 6.64844 9.89844C6.8724 9.54948 7.15625 9.23958 7.5 8.96875C7.84896 8.69271 8.23698 8.45312 8.66406 8.25C9.09635 8.04688 9.53385 7.88021 9.97656 7.75C10.4245 7.61458 10.8594 7.51562 11.2812 7.45312C11.7031 7.38542 12.0781 7.35156 12.4062 7.35156C12.6562 7.35156 12.8906 7.36198 13.1094 7.38281C13.3333 7.40365 13.5312 7.42708 13.7031 7.45312C13.8802 7.47917 14.0286 7.51042 14.1484 7.54688C14.2682 7.57812 14.3542 7.60417 14.4062 7.625Z" fill="white"/>
</svg>
