<svg width="76" height="18" viewBox="0 0 76 18" fill="none" xmlns="http://www.w3.org/2000/svg">
<path d="M7.05469 3.46875C7.125 3.5 7.1582 3.54688 7.1543 3.60938C7.1543 3.67188 7.12891 3.74414 7.07812 3.82617C7.02734 3.9082 6.95508 3.99609 6.86133 4.08984C6.77148 4.17969 6.67188 4.27148 6.5625 4.36523C6.47266 4.43945 6.36914 4.51953 6.25195 4.60547C6.15039 4.68359 6.02539 4.77344 5.87695 4.875C5.73242 4.97266 5.56641 5.08008 5.37891 5.19727C5.48438 5.09961 5.55859 5.01172 5.60156 4.93359C5.64453 4.85547 5.66602 4.7832 5.66602 4.7168C5.66602 4.62695 5.63086 4.54883 5.56055 4.48242C5.49023 4.41602 5.40039 4.36133 5.29102 4.31836C5.18164 4.27148 5.05859 4.23438 4.92188 4.20703C4.78906 4.17969 4.6582 4.16016 4.5293 4.14844C4.4043 4.13281 4.28906 4.12305 4.18359 4.11914C4.07812 4.11523 4 4.11328 3.94922 4.11328C3.74219 4.11328 3.5332 4.13477 3.32227 4.17773C3.11133 4.2168 2.92188 4.28516 2.75391 4.38281C2.58594 4.47656 2.44922 4.60352 2.34375 4.76367C2.23828 4.91992 2.18555 5.11523 2.18555 5.34961C2.18555 5.61523 2.25977 5.84375 2.4082 6.03516C2.55664 6.22266 2.75195 6.38672 2.99414 6.52734C3.23633 6.66797 3.50977 6.79102 3.81445 6.89648C4.12305 7.00195 4.43359 7.10352 4.74609 7.20117C5.0625 7.29492 5.36719 7.39062 5.66016 7.48828C5.95703 7.58594 6.21484 7.69727 6.43359 7.82227C6.72266 7.99414 6.92969 8.19531 7.05469 8.42578C7.18359 8.65234 7.24805 8.89258 7.24805 9.14648C7.24805 9.47461 7.16016 9.78711 6.98438 10.084C6.8125 10.377 6.58594 10.6504 6.30469 10.9043C6.02734 11.1582 5.71094 11.3867 5.35547 11.5898C5 11.793 4.64062 11.9668 4.27734 12.1113C3.91406 12.2559 3.5625 12.3672 3.22266 12.4453C2.88281 12.5234 2.58789 12.5625 2.33789 12.5625C2.01367 12.5625 1.72852 12.5293 1.48242 12.4629C1.23633 12.4004 1.03125 12.3242 0.867188 12.2344C0.703125 12.1445 0.580078 12.0527 0.498047 11.959C0.419922 11.8613 0.386719 11.7832 0.398438 11.7246C0.40625 11.6543 0.441406 11.5781 0.503906 11.4961C0.570312 11.4102 0.667969 11.3184 0.796875 11.2207C0.925781 11.123 1.08789 11.0156 1.2832 10.8984C1.47852 10.7812 1.71484 10.6523 1.99219 10.5117C1.87891 10.6211 1.82812 10.7227 1.83984 10.8164C1.85156 10.9102 1.90625 10.9941 2.00391 11.0684C2.10547 11.1426 2.23633 11.209 2.39648 11.2676C2.56055 11.3223 2.73242 11.3691 2.91211 11.4082C3.0957 11.4434 3.2793 11.4707 3.46289 11.4902C3.64648 11.5098 3.80859 11.5195 3.94922 11.5195C4.1875 11.5195 4.42383 11.4941 4.6582 11.4434C4.89648 11.3926 5.10938 11.3125 5.29688 11.2031C5.48828 11.0898 5.64258 10.9434 5.75977 10.7637C5.88086 10.5801 5.94141 10.3594 5.94141 10.1016C5.94141 9.94922 5.91016 9.79297 5.84766 9.63281C5.78516 9.46875 5.67773 9.31055 5.52539 9.1582C5.37695 9.00586 5.17578 8.86328 4.92188 8.73047C4.66797 8.59375 4.35156 8.47656 3.97266 8.37891C3.39453 8.22656 2.90625 8.07031 2.50781 7.91016C2.11328 7.74609 1.79492 7.57227 1.55273 7.38867C1.31445 7.20117 1.14844 6.99805 1.05469 6.7793C0.960938 6.55664 0.925781 6.30859 0.949219 6.03516C0.972656 5.71875 1.06836 5.43164 1.23633 5.17383C1.4043 4.91211 1.61719 4.67969 1.875 4.47656C2.13672 4.26953 2.42773 4.08984 2.74805 3.9375C3.07227 3.78516 3.40039 3.66016 3.73242 3.5625C4.06836 3.46094 4.39453 3.38672 4.71094 3.33984C5.02734 3.28906 5.30859 3.26367 5.55469 3.26367C5.74219 3.26367 5.91797 3.27148 6.08203 3.28711C6.25 3.30273 6.39844 3.32031 6.52734 3.33984C6.66016 3.35938 6.77148 3.38281 6.86133 3.41016C6.95117 3.43359 7.01562 3.45312 7.05469 3.46875ZM10.6113 11.3496L9.21094 12.3574C9.24609 11.6035 9.27344 10.9609 9.29297 10.4297C9.3125 9.89844 9.32617 9.46094 9.33398 9.11719C9.3457 8.71484 9.35156 8.38281 9.35156 8.12109C9.37109 7.64844 9.30664 7.2793 9.1582 7.01367C9.00977 6.74414 8.7832 6.60938 8.47852 6.60938C8.38086 6.60938 8.27734 6.625 8.16797 6.65625C8.0625 6.68359 7.94922 6.72461 7.82812 6.7793C7.98047 6.66992 8.14062 6.55859 8.30859 6.44531C8.47656 6.32812 8.64844 6.22266 8.82422 6.12891C9 6.03516 9.17578 5.95898 9.35156 5.90039C9.53125 5.83789 9.70703 5.80664 9.87891 5.80664C10.043 5.80664 10.1914 5.83984 10.3242 5.90625C10.4609 5.97266 10.5645 6.08398 10.6348 6.24023C10.6973 6.37305 10.7402 6.52148 10.7637 6.68555C10.791 6.84961 10.8086 7.0293 10.8164 7.22461C11.0156 7.01367 11.2383 6.81641 11.4844 6.63281C11.7344 6.44922 11.9941 6.29297 12.2637 6.16406C12.5332 6.03516 12.8047 5.93945 13.0781 5.87695C13.3516 5.81445 13.6094 5.79883 13.8516 5.83008C14.0273 5.85352 14.209 5.90234 14.3965 5.97656C14.5879 6.05078 14.7617 6.16406 14.918 6.31641C15.0781 6.46875 15.207 6.66992 15.3047 6.91992C15.4023 7.16602 15.4473 7.47461 15.4395 7.8457C15.4277 8.2832 15.4082 8.68555 15.3809 9.05273C15.3535 9.41602 15.3398 9.73828 15.3398 10.0195C15.3398 10.1875 15.3535 10.3477 15.3809 10.5C15.4082 10.6484 15.4551 10.7793 15.5215 10.8926C15.5918 11.002 15.6855 11.0898 15.8027 11.1562C15.9199 11.2227 16.0664 11.2559 16.2422 11.2559C16.3984 11.2559 16.5625 11.2266 16.7344 11.168C16.9102 11.1055 17.0859 11.0117 17.2617 10.8867C16.9766 11.1406 16.7148 11.3535 16.4766 11.5254C16.2422 11.6973 16.0234 11.8359 15.8203 11.9414C15.6172 12.0469 15.4277 12.1211 15.252 12.1641C15.0762 12.2109 14.9062 12.2324 14.7422 12.2285C14.5781 12.2246 14.4375 12.1914 14.3203 12.1289C14.2031 12.0703 14.1094 11.9785 14.0391 11.8535C13.9688 11.7246 13.9199 11.5605 13.8926 11.3613C13.8652 11.1582 13.8555 10.9102 13.8633 10.6172C13.875 10.3594 13.8906 10.0762 13.9102 9.76758C13.9297 9.45508 13.9395 9.14648 13.9395 8.8418C13.9395 8.49414 13.916 8.19531 13.8691 7.94531C13.8223 7.69531 13.7363 7.49023 13.6113 7.33008C13.4902 7.16602 13.3203 7.04492 13.1016 6.9668C12.8867 6.88867 12.6094 6.84961 12.2695 6.84961C12.0234 6.84961 11.8145 6.89844 11.6426 6.99609C11.4707 7.08984 11.3281 7.21875 11.2148 7.38281C11.1016 7.54688 11.0117 7.73828 10.9453 7.95703C10.8828 8.17188 10.834 8.40234 10.7988 8.64844C10.7676 8.89062 10.7461 9.14062 10.7344 9.39844C10.7227 9.65234 10.7129 9.89844 10.7051 10.1367C10.7012 10.375 10.6934 10.5996 10.6816 10.8105C10.6699 11.0176 10.6465 11.1973 10.6113 11.3496ZM25.6816 11.0977C25.5176 11.2617 25.3398 11.4121 25.1484 11.5488C24.9609 11.6816 24.7715 11.7969 24.5801 11.8945C24.3887 11.9922 24.2031 12.0703 24.0234 12.1289C23.8438 12.1875 23.6797 12.2207 23.5312 12.2285C23.4492 12.2363 23.3438 12.2344 23.2148 12.2227C23.0859 12.2148 22.9609 12.1816 22.8398 12.123C22.7227 12.0645 22.6211 11.9727 22.5352 11.8477C22.4492 11.7227 22.4062 11.5449 22.4062 11.3145V10.6172C22.1914 10.8281 21.9648 11.0312 21.7266 11.2266C21.4883 11.418 21.2422 11.5898 20.9883 11.7422C20.7383 11.8906 20.4844 12.0078 20.2266 12.0938C19.9688 12.1836 19.7148 12.2285 19.4648 12.2285C19.1445 12.2285 18.8633 12.1562 18.6211 12.0117C18.3789 11.8711 18.1758 11.6875 18.0117 11.4609C17.8477 11.2344 17.7246 10.9805 17.6426 10.6992C17.5605 10.418 17.5195 10.1387 17.5195 9.86133C17.5195 9.6543 17.5352 9.45117 17.5664 9.25195C17.5977 9.04883 17.6367 8.85742 17.6836 8.67773C17.7344 8.49805 17.791 8.33594 17.8535 8.19141C17.9199 8.04688 17.9883 7.92773 18.0586 7.83398C18.1875 7.6582 18.3516 7.48828 18.5508 7.32422C18.75 7.16016 18.9668 7.00586 19.2012 6.86133C19.4395 6.7168 19.6914 6.58594 19.957 6.46875C20.2227 6.35156 20.4863 6.25 20.748 6.16406C21.0137 6.07812 21.2715 6.01172 21.5215 5.96484C21.7715 5.91797 22.002 5.89453 22.2129 5.89453C22.4316 5.89453 22.6895 5.90625 22.9863 5.92969C23.2832 5.94922 23.6211 5.99219 24 6.05859C23.9844 6.50781 23.9707 6.9043 23.959 7.24805C23.9473 7.5918 23.9375 7.90039 23.9297 8.17383C23.9219 8.44336 23.916 8.68945 23.9121 8.91211C23.9082 9.13477 23.9062 9.35156 23.9062 9.5625C23.9062 9.77734 23.9023 9.98828 23.8945 10.1953C23.8867 10.4023 23.9023 10.5879 23.9414 10.752C23.9805 10.916 24.0566 11.0488 24.1699 11.1504C24.2871 11.252 24.4668 11.3027 24.709 11.3027C24.8535 11.3027 25.0078 11.2852 25.1719 11.25C25.3359 11.2109 25.5059 11.1602 25.6816 11.0977ZM22.418 6.90234C22.1836 6.83984 21.9336 6.79688 21.668 6.77344C21.4023 6.74609 21.1484 6.73242 20.9062 6.73242C20.7734 6.73242 20.6465 6.73633 20.5254 6.74414C20.4082 6.75195 20.3008 6.76172 20.2031 6.77344C20.1055 6.78516 20.0195 6.80078 19.9453 6.82031C19.8711 6.83594 19.8145 6.85547 19.7754 6.87891C19.7051 6.91406 19.623 7 19.5293 7.13672C19.4355 7.26953 19.3457 7.43555 19.2598 7.63477C19.1738 7.83398 19.0996 8.05859 19.0371 8.30859C18.9785 8.55859 18.9492 8.81641 18.9492 9.08203C18.9492 9.33594 18.9863 9.5918 19.0605 9.84961C19.1348 10.1035 19.2422 10.332 19.3828 10.5352C19.5273 10.7383 19.7031 10.9043 19.9102 11.0332C20.1211 11.1582 20.3613 11.2207 20.6309 11.2207C20.8848 11.2207 21.1094 11.1797 21.3047 11.0977C21.5 11.0156 21.6699 10.9043 21.8145 10.7637C21.959 10.6191 22.0781 10.4512 22.1719 10.2598C22.2695 10.0684 22.3477 9.86133 22.4062 9.63867C22.4062 9.47461 22.4062 9.30078 22.4062 9.11719C22.4062 8.92969 22.4062 8.72461 22.4062 8.50195C22.4062 8.2793 22.4062 8.03711 22.4062 7.77539C22.4102 7.50977 22.4141 7.21875 22.418 6.90234ZM29.6895 16.1895C29.373 16.4316 29.0879 16.6289 28.834 16.7812C28.5801 16.9375 28.3516 17.0605 28.1484 17.1504C27.9492 17.2441 27.7715 17.3105 27.6152 17.3496C27.459 17.3887 27.3223 17.4102 27.2051 17.4141C27.084 17.4219 26.9844 17.3984 26.9062 17.3438C26.832 17.2891 26.7734 17.2109 26.7305 17.1094C26.6875 17.0117 26.6582 16.8926 26.6426 16.752C26.627 16.6113 26.623 16.4551 26.6309 16.2832C26.6348 16.2168 26.6367 16.0879 26.6367 15.8965C26.6406 15.709 26.6445 15.4746 26.6484 15.1934C26.6523 14.916 26.6543 14.6035 26.6543 14.2559C26.6582 13.9082 26.6621 13.541 26.666 13.1543C26.6699 12.7715 26.6738 12.3789 26.6777 11.9766C26.6816 11.5742 26.6855 11.1797 26.6895 10.793C26.6934 10.4023 26.6953 10.0312 26.6953 9.67969C26.6992 9.32422 26.7031 9.00391 26.707 8.71875C26.7109 8.42969 26.7129 8.18555 26.7129 7.98633C26.7168 7.7832 26.7207 7.64062 26.7246 7.55859C26.7363 7.26562 26.6992 7.04688 26.6133 6.90234C26.5273 6.75781 26.3848 6.68555 26.1855 6.68555C26.1113 6.68555 26.0293 6.69727 25.9395 6.7207C25.8535 6.74023 25.7598 6.76758 25.6582 6.80273C25.7988 6.69727 25.9473 6.58594 26.1035 6.46875C26.2598 6.34766 26.4199 6.23633 26.584 6.13477C26.752 6.0332 26.9219 5.94922 27.0938 5.88281C27.2656 5.81641 27.4395 5.7832 27.6152 5.7832C27.7051 5.7832 27.791 5.79883 27.873 5.83008C27.9551 5.86133 28.0273 5.91602 28.0898 5.99414C28.1523 6.07227 28.2012 6.17773 28.2363 6.31055C28.2754 6.43945 28.2949 6.60352 28.2949 6.80273V7.20117C28.748 6.77539 29.2441 6.44531 29.7832 6.21094C30.3262 5.97266 30.9062 5.85352 31.5234 5.85352C31.8516 5.85352 32.1465 5.92188 32.4082 6.05859C32.6699 6.19531 32.8926 6.37695 33.0762 6.60352C33.2637 6.82617 33.4062 7.08203 33.5039 7.37109C33.6016 7.65625 33.6504 7.94727 33.6504 8.24414C33.6504 8.66602 33.5684 9.04688 33.4043 9.38672C33.2441 9.72266 33.0332 10.0254 32.7715 10.2949C32.5098 10.5645 32.2148 10.8027 31.8867 11.0098C31.5586 11.2168 31.2305 11.4023 30.9023 11.5664C30.7344 11.6523 30.543 11.7324 30.3281 11.8066C30.1133 11.8809 29.8867 11.9453 29.6484 12C29.4102 12.0586 29.168 12.1074 28.9219 12.1465C28.6758 12.1855 28.4395 12.2129 28.2129 12.2285C28.2012 12.834 28.1914 13.4316 28.1836 14.0215C28.1797 14.6113 28.1777 15.209 28.1777 15.8145C28.1855 16.0137 28.2363 16.1699 28.3301 16.2832C28.4277 16.3965 28.5762 16.4531 28.7754 16.4531C29.0137 16.4531 29.3184 16.3652 29.6895 16.1895ZM29.9414 11.291C30.2148 11.291 30.4551 11.2695 30.6621 11.2266C30.8691 11.1797 31.043 11.1289 31.1836 11.0742C31.3477 11.0117 31.4902 10.9395 31.6113 10.8574C31.6816 10.7949 31.7461 10.7051 31.8047 10.5879C31.8672 10.4707 31.9199 10.3359 31.9629 10.1836C32.0098 10.0312 32.0469 9.86523 32.0742 9.68555C32.1016 9.50195 32.1152 9.3125 32.1152 9.11719C32.1152 8.78906 32.0645 8.48047 31.9629 8.19141C31.8613 7.89844 31.7148 7.64258 31.5234 7.42383C31.3359 7.20508 31.1074 7.03125 30.8379 6.90234C30.5684 6.77344 30.2656 6.70898 29.9297 6.70898C29.6484 6.70898 29.4043 6.79297 29.1973 6.96094C28.9902 7.12891 28.8184 7.38672 28.6816 7.73438C28.5449 8.08203 28.4395 8.52734 28.3652 9.07031C28.2949 9.60938 28.252 10.25 28.2363 10.9922C28.5684 11.1055 28.875 11.1836 29.1562 11.2266C29.4375 11.2695 29.6992 11.291 29.9414 11.291ZM41.9355 8.50781C41.9355 8.85156 41.8691 9.17773 41.7363 9.48633C41.6035 9.79492 41.4258 10.082 41.2031 10.3477C40.9805 10.6133 40.7227 10.8555 40.4297 11.0742C40.1406 11.293 39.8359 11.4824 39.5156 11.6426C39.1992 11.8027 38.8789 11.9297 38.5547 12.0234C38.2305 12.1211 37.9258 12.1816 37.6406 12.2051C37.5156 12.2129 37.3672 12.2109 37.1953 12.1992C37.0234 12.1875 36.8457 12.1562 36.6621 12.1055C36.4824 12.0586 36.3027 11.9863 36.123 11.8887C35.9473 11.7871 35.7891 11.6523 35.6484 11.4844C35.5078 11.3164 35.3945 11.1094 35.3086 10.8633C35.2227 10.6133 35.1797 10.3164 35.1797 9.97266C35.1797 9.71484 35.1816 9.41406 35.1855 9.07031C35.1934 8.72656 35.2012 8.35938 35.209 7.96875C35.2168 7.57422 35.2246 7.16797 35.2324 6.75C35.2441 6.32812 35.2559 5.91211 35.2676 5.50195C35.2793 5.0918 35.2891 4.69727 35.2969 4.31836C35.3086 3.93555 35.3164 3.58789 35.3203 3.27539C35.3281 2.96289 35.334 2.69336 35.3379 2.4668C35.3418 2.24023 35.3418 2.07812 35.3379 1.98047C35.3262 1.83984 35.2852 1.7207 35.2148 1.62305C35.1562 1.54102 35.0664 1.47656 34.9453 1.42969C34.8281 1.37891 34.6621 1.38281 34.4473 1.44141C34.5957 1.36328 34.7461 1.2832 34.8984 1.20117C35.0508 1.11523 35.2051 1.03906 35.3613 0.972656C35.5176 0.902344 35.6738 0.845703 35.8301 0.802734C35.9863 0.755859 36.1445 0.732422 36.3047 0.732422C36.3867 0.732422 36.4648 0.740234 36.5391 0.755859C36.6172 0.771484 36.6836 0.800781 36.7383 0.84375C36.7969 0.882813 36.8438 0.935547 36.8789 1.00195C36.9141 1.06836 36.9316 1.15039 36.9316 1.24805C36.9316 1.31836 36.9297 1.45117 36.9258 1.64648C36.9219 1.8418 36.916 2.08398 36.9082 2.37305C36.9043 2.66211 36.8965 2.98633 36.8848 3.3457C36.877 3.70508 36.8672 4.08203 36.8555 4.47656C36.8477 4.86719 36.8379 5.26758 36.8262 5.67773C36.8184 6.08398 36.8086 6.47852 36.7969 6.86133C37.0039 6.7207 37.2129 6.5918 37.4238 6.47461C37.6348 6.35352 37.8496 6.25195 38.0684 6.16992C38.291 6.08398 38.5156 6.01758 38.7422 5.9707C38.9727 5.91992 39.209 5.89453 39.4512 5.89453C39.8418 5.89453 40.1914 5.9668 40.5 6.11133C40.8086 6.25586 41.0684 6.44922 41.2793 6.69141C41.4941 6.93359 41.6562 7.21289 41.7656 7.5293C41.8789 7.8418 41.9355 8.16797 41.9355 8.50781ZM36.75 9.63867C36.75 9.83398 36.8086 10.041 36.9258 10.2598C37.0469 10.4746 37.207 10.6738 37.4062 10.8574C37.6055 11.041 37.834 11.1934 38.0918 11.3145C38.3496 11.4355 38.6191 11.4961 38.9004 11.4961C39.1738 11.4961 39.4043 11.4297 39.5918 11.2969C39.7832 11.1641 39.9375 10.9961 40.0547 10.793C40.1719 10.5859 40.2559 10.3594 40.3066 10.1133C40.3613 9.86719 40.3887 9.63281 40.3887 9.41016C40.3887 9.05078 40.3301 8.71094 40.2129 8.39062C40.0957 8.06641 39.9297 7.7832 39.7148 7.54102C39.5039 7.29492 39.25 7.10156 38.9531 6.96094C38.6562 6.81641 38.3301 6.74414 37.9746 6.74414C37.8301 6.74414 37.7012 6.75391 37.5879 6.77344C37.4746 6.79297 37.3867 6.81836 37.3242 6.84961C37.2656 6.88086 37.209 6.93945 37.1543 7.02539C37.1035 7.11133 37.0547 7.21484 37.0078 7.33594C36.9609 7.45703 36.918 7.5918 36.8789 7.74023C36.8398 7.88867 36.8047 8.04102 36.7734 8.19727C36.7656 8.54102 36.7598 8.8418 36.7559 9.09961C36.752 9.35742 36.75 9.53711 36.75 9.63867ZM50.291 8.58984C50.291 8.91406 50.2461 9.20898 50.1562 9.47461C50.0664 9.74023 49.959 9.97266 49.834 10.1719C49.709 10.3711 49.582 10.5371 49.4531 10.6699C49.3242 10.8027 49.2207 10.8984 49.1426 10.957C48.916 11.1211 48.6836 11.2812 48.4453 11.4375C48.207 11.5938 47.9609 11.7344 47.707 11.8594C47.457 11.9805 47.1992 12.0781 46.9336 12.1523C46.668 12.2266 46.3945 12.2637 46.1133 12.2637C45.6953 12.2637 45.2988 12.2109 44.9238 12.1055C44.5527 12 44.2266 11.8418 43.9453 11.6309C43.668 11.4199 43.4473 11.1543 43.2832 10.834C43.123 10.5137 43.043 10.1387 43.043 9.70898C43.043 9.33008 43.1074 8.97461 43.2363 8.64258C43.3691 8.30664 43.5449 7.99805 43.7637 7.7168C43.9863 7.43555 44.2461 7.18359 44.543 6.96094C44.8398 6.73438 45.1543 6.54297 45.4863 6.38672C45.8184 6.23047 46.1602 6.11133 46.5117 6.0293C46.8633 5.94727 47.2031 5.90625 47.5312 5.90625C47.9375 5.90625 48.3086 5.97461 48.6445 6.11133C48.9844 6.24414 49.2754 6.43164 49.5176 6.67383C49.7637 6.91211 49.9531 7.19531 50.0859 7.52344C50.2227 7.85156 50.291 8.20703 50.291 8.58984ZM46.248 6.58594C46.0488 6.58594 45.8672 6.62305 45.7031 6.69727C45.5391 6.76758 45.3926 6.86523 45.2637 6.99023C45.1387 7.11133 45.0293 7.25391 44.9355 7.41797C44.8457 7.57812 44.7695 7.74805 44.707 7.92773C44.6484 8.10352 44.6035 8.2832 44.5723 8.4668C44.5449 8.64648 44.5312 8.81641 44.5312 8.97656C44.5312 9.33984 44.5977 9.67969 44.7305 9.99609C44.8633 10.3086 45.0449 10.582 45.2754 10.8164C45.5098 11.0508 45.7812 11.2344 46.0898 11.3672C46.4023 11.5 46.7344 11.5664 47.0859 11.5664C47.3047 11.5664 47.5156 11.5254 47.7188 11.4434C47.9258 11.3574 48.1074 11.2246 48.2637 11.0449C48.4238 10.8613 48.5508 10.627 48.6445 10.3418C48.7422 10.0527 48.791 9.70508 48.791 9.29883C48.791 8.94336 48.7246 8.60156 48.5918 8.27344C48.459 7.94531 48.2773 7.65625 48.0469 7.40625C47.8164 7.15625 47.5469 6.95703 47.2383 6.80859C46.9297 6.66016 46.5996 6.58594 46.248 6.58594ZM59.584 11.0977C59.4199 11.2617 59.2422 11.4121 59.0508 11.5488C58.8633 11.6816 58.6738 11.7969 58.4824 11.8945C58.291 11.9922 58.1055 12.0703 57.9258 12.1289C57.7461 12.1875 57.582 12.2207 57.4336 12.2285C57.3516 12.2363 57.2461 12.2344 57.1172 12.2227C56.9883 12.2148 56.8633 12.1816 56.7422 12.123C56.625 12.0645 56.5234 11.9727 56.4375 11.8477C56.3516 11.7227 56.3086 11.5449 56.3086 11.3145V10.6172C56.0938 10.8281 55.8672 11.0312 55.6289 11.2266C55.3906 11.418 55.1445 11.5898 54.8906 11.7422C54.6406 11.8906 54.3867 12.0078 54.1289 12.0938C53.8711 12.1836 53.6172 12.2285 53.3672 12.2285C53.0469 12.2285 52.7656 12.1562 52.5234 12.0117C52.2812 11.8711 52.0781 11.6875 51.9141 11.4609C51.75 11.2344 51.627 10.9805 51.5449 10.6992C51.4629 10.418 51.4219 10.1387 51.4219 9.86133C51.4219 9.6543 51.4375 9.45117 51.4688 9.25195C51.5 9.04883 51.5391 8.85742 51.5859 8.67773C51.6367 8.49805 51.6934 8.33594 51.7559 8.19141C51.8223 8.04688 51.8906 7.92773 51.9609 7.83398C52.0898 7.6582 52.2539 7.48828 52.4531 7.32422C52.6523 7.16016 52.8691 7.00586 53.1035 6.86133C53.3418 6.7168 53.5938 6.58594 53.8594 6.46875C54.125 6.35156 54.3887 6.25 54.6504 6.16406C54.916 6.07812 55.1738 6.01172 55.4238 5.96484C55.6738 5.91797 55.9043 5.89453 56.1152 5.89453C56.334 5.89453 56.5918 5.90625 56.8887 5.92969C57.1855 5.94922 57.5234 5.99219 57.9023 6.05859C57.8867 6.50781 57.873 6.9043 57.8613 7.24805C57.8496 7.5918 57.8398 7.90039 57.832 8.17383C57.8242 8.44336 57.8184 8.68945 57.8145 8.91211C57.8105 9.13477 57.8086 9.35156 57.8086 9.5625C57.8086 9.77734 57.8047 9.98828 57.7969 10.1953C57.7891 10.4023 57.8047 10.5879 57.8438 10.752C57.8828 10.916 57.959 11.0488 58.0723 11.1504C58.1895 11.252 58.3691 11.3027 58.6113 11.3027C58.7559 11.3027 58.9102 11.2852 59.0742 11.25C59.2383 11.2109 59.4082 11.1602 59.584 11.0977ZM56.3203 6.90234C56.0859 6.83984 55.8359 6.79688 55.5703 6.77344C55.3047 6.74609 55.0508 6.73242 54.8086 6.73242C54.6758 6.73242 54.5488 6.73633 54.4277 6.74414C54.3105 6.75195 54.2031 6.76172 54.1055 6.77344C54.0078 6.78516 53.9219 6.80078 53.8477 6.82031C53.7734 6.83594 53.7168 6.85547 53.6777 6.87891C53.6074 6.91406 53.5254 7 53.4316 7.13672C53.3379 7.26953 53.248 7.43555 53.1621 7.63477C53.0762 7.83398 53.002 8.05859 52.9395 8.30859C52.8809 8.55859 52.8516 8.81641 52.8516 9.08203C52.8516 9.33594 52.8887 9.5918 52.9629 9.84961C53.0371 10.1035 53.1445 10.332 53.2852 10.5352C53.4297 10.7383 53.6055 10.9043 53.8125 11.0332C54.0234 11.1582 54.2637 11.2207 54.5332 11.2207C54.7871 11.2207 55.0117 11.1797 55.207 11.0977C55.4023 11.0156 55.5723 10.9043 55.7168 10.7637C55.8613 10.6191 55.9805 10.4512 56.0742 10.2598C56.1719 10.0684 56.25 9.86133 56.3086 9.63867C56.3086 9.47461 56.3086 9.30078 56.3086 9.11719C56.3086 8.92969 56.3086 8.72461 56.3086 8.50195C56.3086 8.2793 56.3086 8.03711 56.3086 7.77539C56.3125 7.50977 56.3164 7.21875 56.3203 6.90234ZM62.25 7.25977C62.4336 7.08398 62.6328 6.9082 62.8477 6.73242C63.0664 6.55664 63.2871 6.39844 63.5098 6.25781C63.7363 6.11328 63.9629 5.99609 64.1895 5.90625C64.416 5.81641 64.6289 5.77148 64.8281 5.77148C64.9648 5.77148 65.0977 5.78711 65.2266 5.81836C65.3594 5.8457 65.4883 5.87891 65.6133 5.91797C65.7422 5.95312 65.8691 5.98633 65.9941 6.01758C66.1191 6.04492 66.2461 6.05859 66.375 6.05859C66.4531 6.05859 66.5352 6.05273 66.6211 6.04102C66.707 6.0293 66.8047 6.00781 66.9141 5.97656C66.668 6.16406 66.4531 6.32617 66.2695 6.46289C66.0859 6.59961 65.9141 6.71289 65.7539 6.80273C65.5938 6.88867 65.4336 6.95312 65.2734 6.99609C65.1172 7.03516 64.9414 7.05078 64.7461 7.04297C64.5547 7.03906 64.373 7.01953 64.2012 6.98438C64.0332 6.94922 63.8789 6.91406 63.7383 6.87891C63.6016 6.83984 63.4805 6.8125 63.375 6.79688C63.2734 6.77734 63.1934 6.7832 63.1348 6.81445C62.9941 6.88477 62.8711 7.01367 62.7656 7.20117C62.6602 7.38867 62.5703 7.61133 62.4961 7.86914C62.4258 8.12695 62.3672 8.40625 62.3203 8.70703C62.2773 9.00781 62.2441 9.30859 62.2207 9.60938C62.2012 9.91016 62.1914 10.1973 62.1914 10.4707C62.1914 10.7402 62.1992 10.9746 62.2148 11.1738C61.9219 11.3613 61.6797 11.5234 61.4883 11.6602C61.2969 11.7969 61.1445 11.9102 61.0312 12C60.8984 12.1055 60.7969 12.1973 60.7266 12.2754C60.7305 12.041 60.7363 11.7578 60.7441 11.4258C60.752 11.0898 60.7578 10.7383 60.7617 10.3711C60.7695 10.0039 60.7754 9.64062 60.7793 9.28125C60.7832 8.91797 60.7852 8.5918 60.7852 8.30273C60.7852 8.11914 60.7793 7.93359 60.7676 7.74609C60.7598 7.55469 60.7285 7.38086 60.6738 7.22461C60.6191 7.06836 60.5332 6.94141 60.416 6.84375C60.3027 6.74609 60.1406 6.69727 59.9297 6.69727C59.8477 6.69727 59.7617 6.70703 59.6719 6.72656C59.5859 6.74219 59.5 6.77148 59.4141 6.81445C59.5781 6.70508 59.7422 6.59375 59.9062 6.48047C60.0703 6.36719 60.2344 6.26562 60.3984 6.17578C60.5664 6.08203 60.7324 6.00781 60.8965 5.95312C61.0645 5.89453 61.2344 5.86523 61.4062 5.86523C61.6133 5.86523 61.7734 5.91016 61.8867 6C62.0039 6.08984 62.0879 6.20312 62.1387 6.33984C62.1934 6.47656 62.2246 6.62695 62.2324 6.79102C62.2441 6.95508 62.25 7.11133 62.25 7.25977ZM75.0762 11.1855C74.5488 11.5449 74.0996 11.8027 73.7285 11.959C73.3574 12.1152 73.043 12.1934 72.7852 12.1934C72.6797 12.1934 72.5703 12.1758 72.457 12.1406C72.3477 12.1094 72.2422 12.0547 72.1406 11.9766C72.0391 11.8945 71.9453 11.7871 71.8594 11.6543C71.7773 11.5176 71.7129 11.3457 71.666 11.1387C71.4746 11.2793 71.2617 11.418 71.0273 11.5547C70.7969 11.6914 70.5586 11.8145 70.3125 11.9238C70.0664 12.0332 69.8184 12.1211 69.5684 12.1875C69.3223 12.2539 69.0859 12.2871 68.8594 12.2871C68.4766 12.2871 68.1328 12.209 67.8281 12.0527C67.5234 11.9004 67.2637 11.6973 67.0488 11.4434C66.8379 11.1895 66.6738 10.9004 66.5566 10.5762C66.4434 10.252 66.3867 9.91797 66.3867 9.57422C66.3867 9.19141 66.4453 8.84961 66.5625 8.54883C66.6836 8.24414 66.8457 7.97461 67.0488 7.74023C67.2559 7.50195 67.4941 7.29297 67.7637 7.11328C68.0332 6.92969 68.3203 6.76953 68.625 6.63281C68.9297 6.49609 69.2422 6.37695 69.5625 6.27539C69.8828 6.16992 70.1934 6.07422 70.4941 5.98828C70.5215 5.98438 70.5547 5.98047 70.5938 5.97656C70.625 5.97266 70.6621 5.9707 70.7051 5.9707C70.752 5.9668 70.8047 5.96484 70.8633 5.96484C70.9727 5.96484 71.0957 5.97266 71.2324 5.98828C71.373 6 71.5215 6.02344 71.6777 6.05859L71.8008 2.36133C71.793 2.14648 71.7539 1.96289 71.6836 1.81055C71.6523 1.74805 71.6133 1.68945 71.5664 1.63477C71.5195 1.57617 71.4609 1.53125 71.3906 1.5C71.3242 1.46875 71.2422 1.45117 71.1445 1.44727C71.0508 1.44336 70.9414 1.46094 70.8164 1.5C70.9688 1.42969 71.1309 1.35156 71.3027 1.26562C71.4746 1.17578 71.6445 1.09375 71.8125 1.01953C71.9844 0.941406 72.1504 0.876953 72.3105 0.826172C72.4746 0.771484 72.625 0.744141 72.7617 0.744141C72.9102 0.744141 73.0332 0.783203 73.1309 0.861328C73.2324 0.939453 73.2891 1.06055 73.3008 1.22461C73.3125 1.33398 73.3184 1.48437 73.3184 1.67578C73.3223 1.86719 73.3242 2.0957 73.3242 2.36133C73.3242 2.67773 73.3203 3.03125 73.3125 3.42188C73.3086 3.80859 73.3027 4.21289 73.2949 4.63477C73.2871 5.05664 73.2773 5.48633 73.2656 5.92383C73.2539 6.36133 73.2441 6.78906 73.2363 7.20703C73.2285 7.625 73.2207 8.02344 73.2129 8.40234C73.209 8.77734 73.207 9.11328 73.207 9.41016C73.207 9.64453 73.2207 9.875 73.248 10.1016C73.2793 10.3281 73.3379 10.5312 73.4238 10.7109C73.5137 10.8906 73.6367 11.0371 73.793 11.1504C73.9531 11.2598 74.1641 11.3145 74.4258 11.3145C74.5234 11.3145 74.625 11.3047 74.7305 11.2852C74.8398 11.2656 74.9551 11.2324 75.0762 11.1855ZM71.6426 7.3418C71.5059 7.22461 71.3594 7.12695 71.2031 7.04883C71.0469 6.9707 70.8848 6.9082 70.7168 6.86133C70.5527 6.81055 70.3867 6.77539 70.2188 6.75586C70.0547 6.73242 69.8945 6.7207 69.7383 6.7207C69.3984 6.7207 69.1074 6.77148 68.8652 6.87305C68.627 6.97461 68.4316 7.11914 68.2793 7.30664C68.127 7.49414 68.0156 7.71875 67.9453 7.98047C67.875 8.24219 67.8398 8.5332 67.8398 8.85352C67.8398 9.19727 67.8926 9.52344 67.998 9.83203C68.1074 10.1367 68.2598 10.4062 68.4551 10.6406C68.6504 10.8711 68.8867 11.0547 69.1641 11.1914C69.4453 11.3242 69.7559 11.3906 70.0957 11.3906C70.3379 11.3906 70.5449 11.3613 70.7168 11.3027C70.8887 11.2402 71.0312 11.1562 71.1445 11.0508C71.2617 10.9414 71.3555 10.8105 71.4258 10.6582C71.4961 10.5059 71.5527 10.3379 71.5957 10.1543C71.5957 10.002 71.5957 9.82422 71.5957 9.62109C71.5996 9.41406 71.6035 9.19141 71.6074 8.95312C71.6152 8.71094 71.6211 8.45508 71.625 8.18555C71.6289 7.91211 71.6348 7.63086 71.6426 7.3418Z" fill="#005248"/>
</svg>
